<?xml version="1.0" encoding="UTF-8"?>
<svg xmlns="http://www.w3.org/2000/svg" xmlns:xlink="http://www.w3.org/1999/xlink" width="24px" height="24px" viewBox="0 0 24 24" version="1.1">
<path d="M 7.777344 0.722656 C 6 1.277344 1.109375 5.554688 1.109375 6.5 C 1.109375 7.445312 5.945312 9.445312 8.167969 9.445312 L 10.5 9.445312 L 11.667969 5.667969 C 12.277344 3.609375 12.945312 1.5 13.109375 0.945312 C 13.332031 0.167969 13.054688 0 11.554688 0.0546875 C 10.554688 0.109375 8.832031 0.390625 7.777344 0.722656 Z M 7.777344 0.722656 "/>
<path d="M 13.332031 2 C 12.722656 3.609375 12.609375 6.332031 13.109375 8.167969 C 13.445312 9.390625 13.722656 9.445312 18.390625 9.445312 C 22.109375 9.445312 23.332031 9.277344 23.332031 8.722656 C 23.332031 7.054688 19.945312 2.777344 17.832031 1.667969 C 14.890625 0.222656 14 0.277344 13.332031 2 Z M 13.332031 2 "/>
<path d="M 0.332031 9 C -0.332031 11.554688 0.0546875 14.277344 1.445312 17.109375 C 2.222656 18.722656 3.167969 20 3.554688 20 C 4.777344 20 8.222656 16.445312 8.777344 14.609375 C 9.332031 12.945312 9.222656 12.722656 7.890625 11.722656 C 1.609375 7.332031 0.890625 7.054688 0.332031 9 Z M 0.332031 9 "/>
<path d="M 16.554688 11.390625 L 14.5 12.777344 L 16.109375 17.277344 C 17.054688 19.722656 17.777344 21.832031 17.777344 22 C 17.777344 22.109375 18.390625 21.832031 19.167969 21.332031 C 21.277344 19.945312 23.332031 16.054688 23.722656 12.832031 L 24.054688 10 L 21.332031 10 C 19.332031 10 18.054688 10.390625 16.554688 11.390625 Z M 16.554688 11.390625 "/>
<path d="M 7.890625 17.667969 L 3.832031 20.777344 L 5.945312 22.054688 C 8.609375 23.667969 11.945312 24.167969 14.890625 23.332031 C 17.054688 22.777344 17.222656 22.609375 16.890625 21.222656 C 16.277344 18.667969 15.332031 17.109375 13.609375 15.832031 L 11.945312 14.554688 Z M 7.890625 17.667969 "/>
</svg>
